<svg id="_x33_0" enable-background="new 0 0 64 64" height="512" viewBox="0 0 64 64" width="512" xmlns="http://www.w3.org/2000/svg" xmlns:xlink="http://www.w3.org/1999/xlink"><linearGradient id="SVGID_1_" gradientUnits="userSpaceOnUse" x1="32" x2="32" y1="63" y2="1"><stop offset="0" stop-color="#9f2fff"/><stop offset="1" stop-color="#0bb1d3"/></linearGradient><path d="m37 33h-10v-2h10zm26-30v36h-4.181c-.99 7.692-6.36 14.279-13.819 16.721v5.279h18v2h-62v-2h18v-5.279c-7.459-2.442-12.829-9.029-13.819-16.721h-4.181v-36c0-1.103.897-2 2-2h6c1.103 0 2 .897 2 2v2h4c0-1.103.897-2 2-2h2c1.103 0 2 .897 2 2h2c0-1.103.897-2 2-2h2c1.103 0 2 .897 2 2h6c0-1.103.897-2 2-2h2c1.103 0 2 .897 2 2h2c0-1.103.897-2 2-2h2c1.103 0 2 .897 2 2h4v-2c0-1.103.897-2 2-2h6c1.103 0 2 .897 2 2zm-2 32v-2l-1.333 1zm-12-23.205 4 9.333v-10.128h-4zm6 11.205 1.333-1-1.333-1zm3-2.25 2.333-1.75-2.333-1.75-2.333 1.75zm-1.667-4.75-1.333-1v2zm1.667-1.25 2.333-1.75-2.333-1.75-2.333 1.75zm-1.667-4.75-1.333-1v2zm1.667-1.25 2.333-1.75h-4.667zm-2.413 16.309c1.062.158 1.982.728 2.6 1.55l2.146-1.609-2.333-1.75zm3.413 4.941v2l1.333-1zm2-1v-2l-1.334 1zm0-6v-2l-1.333 1zm0-6v-2l-1.333 1zm0-6v-2l-1.333 1zm-6-6h6v-2h-6zm-6 2v2h4v-2zm-4.341 6-1.571 3.667 3.831 8.939-1.838.788-3.081-7.189-2.512 5.862c.866.219 1.512.999 1.512 1.933v8.169c0 .619-.069 1.229-.17 1.831h9.815c.183-.773.303-1.57.341-2.389l-.408-.204c-.974-.487-1.578-1.466-1.578-2.553 0-1.276.842-2.36 2-2.724v-.13c0-1.382.705-2.602 1.775-3.321l-5.434-12.679zm5.326 26h-9.682c-.791 2.176-2.236 4.081-4.165 5.425l.643 2.575h1.219c5.395 0 10.02-3.31 11.985-8zm-23.985 8h1.219l.644-2.575c-1.929-1.345-3.374-3.25-4.165-5.425h-9.682c1.964 4.69 6.589 8 11.984 8zm-1-16v4.169c0 3.157 1.635 6.133 4.285 7.831h5.431c2.649-1.698 4.284-4.674 4.284-7.831v-8.169h-10c-2.206 0-4 1.794-4 4zm7.484-6-.484-1.128-.484 1.128zm-3.203 22h5.438l-.5-2h-4.438zm12.719-32.872 1-2.333v-.795h-2v.795zm3-3.128h2v-6h-2zm-4-4v2h2v-2zm-4.341 6-3.571 8.333 1.571 3.667h2.682l3.571-8.333-1.571-3.667zm-7.659-1.205 3 7 3-7v-.795h-6zm8-.795h2v-6h-2zm-8-4v2h6v-2zm-4.341 6-1.571 3.667 3.747 8.744c.673-.262 1.401-.411 2.165-.411h.341l1.571-3.667-3.571-8.333zm-2.659 1.128 1-2.333v-.795h-2v.795zm3-3.128h2v-6h-2zm-4-4v2h2v-2zm-4.341 6-5.434 12.679c1.07.719 1.775 1.939 1.775 3.321v.13c1.158.364 2 1.447 2 2.724 0 1.087-.604 2.066-1.577 2.553l-.409.205c.038.819.157 1.616.341 2.389h9.815c-.1-.602-.17-1.212-.17-1.831v-4.17c0-1.821.818-3.452 2.103-4.554l-3.103-7.241-3.081 7.189-1.838-.788 3.831-8.939-1.571-3.667zm-1.659-2h-4v10.128l4-9.333zm-9 .25-2.333 1.75 2.333 1.75 2.333-1.75zm3-.25v-2l-1.333 1zm-1.333 5 1.333 1v-2zm-1.667 1.25-2.333 1.75 2.333 1.75 2.333-1.75zm1.667 4.75 1.333 1v-2zm.666-15h-4.666l2.333 1.75zm-5.333 2v2l1.333-1zm0 6v2l1.333-1zm0 6v2l1.333-1zm2 11v-2l-1.333 1zm-2 1v2l1.333-1zm1.334-5-1.334-1v2zm4.079-2.941-2.413-1.809-2.333 1.75 2.146 1.609c.618-.821 1.538-1.391 2.6-1.55zm8.587-14.059h2v-6h-2zm-6-4v2h4v-2zm-8-4v2h6v-2zm2.023 34c-.005-.187-.023-.372-.023-.56v-.44l-1.333 1zm7.783 12.78 3.973-3.973c-3.51-2.748-5.779-7.013-5.779-11.807v-.618l1.528-.764c.291-.145.472-.438.472-.764 0-.471-.383-.854-.854-.854h-1.146v-2c0-1.103-.897-2-2-2s-2 .897-2 2v7.44c0 5.157 2.203 9.951 5.806 13.34zm32.194 1.22v2.616c1.692-.623 3.251-1.491 4.654-2.548l-4.119-4.119c-2.217 1.296-4.787 2.051-7.535 2.051h-12c-2.748 0-5.318-.755-7.535-2.051l-4.119 4.119c1.403 1.057 2.962 1.925 4.654 2.548v-2.616h2v10h22v-10zm12-22c0-1.103-.897-2-2-2s-2 .897-2 2v2h-1.146c-.471 0-.854.383-.854.854 0 .326.181.619.473.765l1.527.763v.618c0 4.794-2.269 9.059-5.779 11.806l3.973 3.973c3.603-3.388 5.806-8.182 5.806-13.339zm1.977 8h1.357l-1.334-1v.44c0 .188-.018.373-.023.56z" fill="url(#SVGID_1_)"/></svg>